# xmcd
#
# Track frame offsets: 
#        150
#        8954
#        41117
#        64127
#        90626
#        108113
#        120554
#        150599
#        184575
#        217471
#        241095
#        256878
#        289267
#
# Disc length: 4388 seconds
#
# Revision: 3
# Processed by: cddbd v1.5.2PL0 Copyright (c) Steve Scherf et al.
# Submitted via: ExactAudioCopy v1.1
#
DISCID=b311220d
DTITLE=Sasha - Invol2ver
DYEAR=2008
DGENRE=Trance
TTITLE0=Badger - Intro
TTITLE1=Telefon Tel Aviv - You Are The Worst Thing In The World (Sasha
TTITLE1=Invol2ver Remix)
TTITLE2=Rone - Flesh (Sasha Invol2ver Remix)
TTITLE3=Sasha Vs. Ray LaMontagne - Eclipse
TTITLE4=Sasha Vs. Adam Parker - Lowlife
TTITLE5=Charlie May - Midnight
TTITLE6=Apparat - Arcadia (Sasha Invol2ver Remix)
TTITLE7=Home Video - That You Might (Sasha Invol2ver Remix)
TTITLE8=Ladytron - Destroy Everything You Touch (Sasha Invol2ver Remix
TTITLE8=)
TTITLE9=M83 - Couleurs (Sasha Invol2ver Remix)
TTITLE10=Thom Yorke - The Eraser (Sasha Invol2ver Remix)
TTITLE11=3 Little Piggys
TTITLE12=Engineers - Sometimes I Realise (Sasha Invol2ver Remix)
EXTD=
EXTT0=
EXTT1=
EXTT2=
EXTT3=
EXTT4=
EXTT5=
EXTT6=
EXTT7=
EXTT8=
EXTT9=
EXTT10=
EXTT11=
EXTT12=
PLAYORDER=
